<?xml version="1.0" encoding="UTF-8" standalone="no"?>
<!DOCTYPE svg PUBLIC "-//W3C//DTD SVG 1.1//EN" "http://www.w3.org/Graphics/SVG/1.1/DTD/svg11.dtd">
<svg width="100%" height="100%" viewBox="0 0 954 200" version="1.1" xmlns="http://www.w3.org/2000/svg" xmlns:xlink="http://www.w3.org/1999/xlink" xml:space="preserve" xmlns:serif="http://www.serif.com/" style="fill-rule:evenodd;clip-rule:evenodd;stroke-linejoin:round;stroke-miterlimit:2;">
    <g transform="matrix(1,0,0,1,-709.41,-362.622)">
        <g id="original">
            <path d="M855.304,362.622L709.41,362.622L709.41,561.797L886.613,561.797L886.613,393.825L855.304,362.622Z" style="fill:rgb(117,51,139);"/>
            <g transform="matrix(4.43098,0,0,4.43098,-2320.68,-3527.02)">
                <g transform="matrix(49.8385,0,0,49.8385,728.52,912.555)">
                    <path d="M0.246,0.015C0.181,0.015 0.13,0.002 0.094,-0.023C0.057,-0.049 0.039,-0.086 0.039,-0.135C0.039,-0.179 0.053,-0.213 0.082,-0.236C0.11,-0.26 0.151,-0.274 0.204,-0.279L0.343,-0.293L0.343,-0.315C0.343,-0.344 0.333,-0.366 0.314,-0.379C0.295,-0.393 0.269,-0.399 0.235,-0.399C0.209,-0.399 0.183,-0.396 0.158,-0.388C0.133,-0.381 0.111,-0.373 0.092,-0.363C0.086,-0.368 0.08,-0.375 0.075,-0.383C0.07,-0.391 0.068,-0.399 0.068,-0.408C0.068,-0.429 0.08,-0.445 0.103,-0.456C0.122,-0.464 0.143,-0.471 0.167,-0.475C0.192,-0.48 0.217,-0.482 0.243,-0.482C0.305,-0.482 0.354,-0.469 0.391,-0.442C0.428,-0.415 0.446,-0.372 0.446,-0.314L0.446,-0.081C0.446,-0.066 0.443,-0.054 0.436,-0.045C0.429,-0.036 0.42,-0.029 0.408,-0.022C0.39,-0.012 0.368,-0.003 0.34,0.004C0.312,0.011 0.281,0.015 0.246,0.015ZM0.246,-0.068C0.269,-0.068 0.289,-0.07 0.306,-0.075C0.323,-0.08 0.335,-0.084 0.343,-0.089L0.343,-0.216L0.234,-0.205C0.204,-0.203 0.181,-0.196 0.165,-0.185C0.15,-0.174 0.142,-0.158 0.142,-0.137C0.142,-0.116 0.151,-0.099 0.168,-0.086C0.185,-0.074 0.211,-0.068 0.246,-0.068Z" style="fill:rgb(117,51,139);fill-rule:nonzero;"/>
                </g>
                <g transform="matrix(49.8385,0,0,49.8385,757.377,912.555)">
                    <path d="M0.174,-0.367L0.174,-0.221L0.069,-0.221L0.069,-0.37C0.069,-0.386 0.072,-0.4 0.079,-0.41C0.086,-0.421 0.097,-0.43 0.111,-0.44C0.13,-0.452 0.155,-0.462 0.185,-0.47C0.215,-0.478 0.248,-0.482 0.284,-0.482C0.343,-0.482 0.372,-0.465 0.372,-0.432C0.372,-0.423 0.371,-0.416 0.369,-0.409C0.366,-0.402 0.363,-0.396 0.36,-0.391C0.353,-0.392 0.344,-0.394 0.334,-0.395C0.324,-0.396 0.313,-0.397 0.302,-0.397C0.276,-0.397 0.251,-0.394 0.229,-0.388C0.207,-0.382 0.189,-0.375 0.174,-0.367ZM0.069,-0.264L0.174,-0.255L0.174,-0.002C0.169,-0 0.163,0.001 0.154,0.003C0.146,0.005 0.136,0.006 0.126,0.006C0.107,0.006 0.092,0.002 0.083,-0.005C0.073,-0.012 0.069,-0.025 0.069,-0.042L0.069,-0.264Z" style="fill:rgb(117,51,139);fill-rule:nonzero;"/>
                </g>
                <g transform="matrix(49.8385,0,0,49.8385,780.402,912.555)">
                    <path d="M0.292,-0.482C0.335,-0.482 0.373,-0.473 0.406,-0.455C0.44,-0.437 0.467,-0.41 0.486,-0.373C0.506,-0.336 0.516,-0.29 0.516,-0.235C0.516,-0.179 0.506,-0.133 0.485,-0.096C0.465,-0.059 0.436,-0.032 0.4,-0.013C0.364,0.005 0.321,0.014 0.273,0.014C0.237,0.014 0.205,0.009 0.178,0.001C0.15,-0.008 0.127,-0.018 0.11,-0.029C0.096,-0.038 0.086,-0.048 0.08,-0.057C0.074,-0.067 0.071,-0.079 0.071,-0.094L0.071,-0.421L0.175,-0.421L0.175,-0.098C0.185,-0.091 0.198,-0.085 0.215,-0.08C0.231,-0.074 0.251,-0.071 0.272,-0.071C0.313,-0.071 0.346,-0.085 0.371,-0.111C0.396,-0.138 0.409,-0.179 0.409,-0.235C0.409,-0.292 0.396,-0.333 0.371,-0.359C0.346,-0.385 0.314,-0.398 0.275,-0.398C0.25,-0.398 0.228,-0.393 0.209,-0.383C0.19,-0.374 0.174,-0.363 0.161,-0.351L0.15,-0.436C0.165,-0.447 0.184,-0.457 0.208,-0.467C0.232,-0.477 0.26,-0.482 0.292,-0.482ZM0.176,-0.398L0.071,-0.398L0.071,-0.649C0.075,-0.651 0.082,-0.652 0.091,-0.654C0.099,-0.656 0.109,-0.657 0.119,-0.657C0.139,-0.657 0.153,-0.653 0.162,-0.646C0.171,-0.639 0.176,-0.626 0.176,-0.608L0.176,-0.398Z" style="fill:rgb(117,51,139);fill-rule:nonzero;"/>
                </g>
                <g transform="matrix(49.8385,0,0,49.8385,811.75,912.555)">
                    <path d="M0.518,-0.234C0.518,-0.184 0.509,-0.14 0.489,-0.103C0.47,-0.066 0.442,-0.037 0.407,-0.017C0.371,0.004 0.329,0.014 0.281,0.014C0.234,0.014 0.192,0.004 0.156,-0.016C0.12,-0.037 0.093,-0.065 0.073,-0.103C0.054,-0.14 0.044,-0.184 0.044,-0.234C0.044,-0.285 0.054,-0.329 0.074,-0.366C0.094,-0.403 0.121,-0.432 0.157,-0.452C0.193,-0.472 0.234,-0.482 0.282,-0.482C0.329,-0.482 0.37,-0.472 0.406,-0.452C0.441,-0.431 0.469,-0.403 0.489,-0.366C0.508,-0.329 0.518,-0.285 0.518,-0.234ZM0.281,-0.398C0.242,-0.398 0.21,-0.383 0.187,-0.354C0.163,-0.325 0.152,-0.285 0.152,-0.234C0.152,-0.182 0.163,-0.142 0.186,-0.114C0.209,-0.085 0.241,-0.071 0.281,-0.071C0.322,-0.071 0.354,-0.085 0.376,-0.114C0.399,-0.143 0.411,-0.183 0.411,-0.234C0.411,-0.285 0.399,-0.325 0.376,-0.354C0.353,-0.383 0.322,-0.398 0.281,-0.398Z" style="fill:rgb(117,51,139);fill-rule:nonzero;"/>
                </g>
                <g transform="matrix(49.8385,0,0,49.8385,843.298,912.555)">
                    <path d="M0.49,-0.307L0.49,-0.208L0.385,-0.208L0.385,-0.303C0.385,-0.336 0.376,-0.36 0.357,-0.375C0.339,-0.39 0.314,-0.398 0.283,-0.398C0.26,-0.398 0.239,-0.395 0.221,-0.389C0.203,-0.383 0.187,-0.376 0.174,-0.369L0.174,-0.208L0.069,-0.208L0.069,-0.372C0.069,-0.387 0.072,-0.4 0.078,-0.409C0.084,-0.419 0.094,-0.428 0.108,-0.437C0.127,-0.449 0.151,-0.459 0.182,-0.469C0.212,-0.478 0.246,-0.482 0.283,-0.482C0.348,-0.482 0.399,-0.468 0.436,-0.439C0.472,-0.409 0.49,-0.366 0.49,-0.307ZM0.069,-0.26L0.174,-0.26L0.174,-0.002C0.169,-0 0.163,0.001 0.154,0.003C0.146,0.005 0.136,0.006 0.126,0.006C0.107,0.006 0.092,0.002 0.083,-0.005C0.073,-0.012 0.069,-0.025 0.069,-0.042L0.069,-0.26ZM0.385,-0.26L0.49,-0.26L0.49,-0.002C0.486,-0 0.479,0.001 0.47,0.003C0.462,0.005 0.452,0.006 0.442,0.006C0.423,0.006 0.408,0.002 0.399,-0.005C0.39,-0.012 0.385,-0.025 0.385,-0.042L0.385,-0.26Z" style="fill:rgb(117,51,139);fill-rule:nonzero;"/>
                </g>
                <g transform="matrix(49.8385,0,0,49.8385,874.696,912.555)">
                    <path d="M0.112,-0.176L0.108,-0.253L0.39,-0.293C0.388,-0.323 0.377,-0.349 0.357,-0.37C0.337,-0.39 0.31,-0.401 0.274,-0.401C0.236,-0.401 0.206,-0.388 0.181,-0.361C0.157,-0.335 0.144,-0.298 0.144,-0.249L0.146,-0.21C0.151,-0.163 0.168,-0.127 0.196,-0.104C0.225,-0.081 0.262,-0.069 0.308,-0.069C0.336,-0.069 0.362,-0.074 0.385,-0.082C0.409,-0.091 0.427,-0.101 0.441,-0.111C0.45,-0.105 0.456,-0.099 0.461,-0.091C0.467,-0.083 0.469,-0.074 0.469,-0.065C0.469,-0.05 0.462,-0.036 0.447,-0.024C0.432,-0.012 0.412,-0.003 0.387,0.004C0.362,0.011 0.334,0.014 0.302,0.014C0.25,0.014 0.205,0.004 0.167,-0.015C0.128,-0.034 0.098,-0.062 0.076,-0.099C0.055,-0.137 0.044,-0.183 0.044,-0.238C0.044,-0.278 0.05,-0.313 0.062,-0.343C0.074,-0.374 0.09,-0.399 0.111,-0.42C0.132,-0.44 0.156,-0.456 0.184,-0.466C0.212,-0.477 0.242,-0.482 0.274,-0.482C0.317,-0.482 0.354,-0.473 0.386,-0.456C0.418,-0.438 0.444,-0.414 0.462,-0.383C0.48,-0.351 0.489,-0.316 0.489,-0.275C0.489,-0.258 0.485,-0.246 0.477,-0.238C0.469,-0.23 0.457,-0.225 0.442,-0.223L0.112,-0.176Z" style="fill:rgb(117,51,139);fill-rule:nonzero;"/>
                </g>
            </g>
            <g transform="matrix(4.43098,0,0,4.43098,-2485.37,-3527.02)">
                <g transform="matrix(49.8385,0,0,49.8385,728.52,912.555)">
                    <path d="M0.299,-0.397C0.257,-0.397 0.222,-0.382 0.194,-0.354C0.165,-0.326 0.151,-0.286 0.151,-0.233C0.151,-0.181 0.165,-0.141 0.192,-0.113C0.22,-0.085 0.255,-0.071 0.299,-0.071C0.325,-0.071 0.347,-0.075 0.364,-0.082C0.382,-0.089 0.398,-0.097 0.412,-0.105C0.42,-0.1 0.427,-0.093 0.432,-0.086C0.438,-0.079 0.44,-0.07 0.44,-0.059C0.44,-0.038 0.427,-0.021 0.399,-0.007C0.372,0.007 0.337,0.014 0.293,0.014C0.245,0.014 0.201,0.004 0.164,-0.014C0.126,-0.032 0.097,-0.059 0.076,-0.096C0.055,-0.132 0.044,-0.178 0.044,-0.233C0.044,-0.288 0.055,-0.334 0.077,-0.371C0.1,-0.408 0.13,-0.436 0.167,-0.455C0.205,-0.473 0.246,-0.482 0.29,-0.482C0.333,-0.482 0.368,-0.475 0.395,-0.46C0.422,-0.445 0.435,-0.427 0.435,-0.407C0.435,-0.397 0.433,-0.389 0.428,-0.382C0.423,-0.374 0.416,-0.368 0.409,-0.363C0.395,-0.372 0.38,-0.38 0.363,-0.387C0.345,-0.393 0.324,-0.397 0.299,-0.397Z" style="fill:white;fill-rule:nonzero;"/>
                </g>
            </g>
            <g transform="matrix(0.629365,0,0,0.627233,855.304,362.622)">
                <path d="M0,49.748L49.746,49.748L0,0L0,49.748Z" style="fill:rgb(206,160,224);fill-rule:nonzero;"/>
            </g>
        </g>
    </g>
</svg>
