<?xml version="1.0" encoding="UTF-8" standalone="no"?><!DOCTYPE svg PUBLIC "-//W3C//DTD SVG 1.1//EN" "http://www.w3.org/Graphics/SVG/1.1/DTD/svg11.dtd"><svg width="100%" height="100%" viewBox="0 0 325 148" version="1.1" xmlns="http://www.w3.org/2000/svg" xmlns:xlink="http://www.w3.org/1999/xlink" xml:space="preserve" xmlns:serif="http://www.serif.com/" style="fill-rule:evenodd;clip-rule:evenodd;stroke-linejoin:round;stroke-miterlimit:2;"><path d="M70.08,86.328c-0,-5.365 -4.355,-9.72 -9.72,-9.72l-50.64,0c-5.365,0 -9.72,4.355 -9.72,9.72c0,5.365 4.355,9.72 9.72,9.72l50.64,0c5.365,0 9.72,-4.355 9.72,-9.72Z"/><path d="M222.12,127.68l-44.4,0c-5.365,0 -9.72,4.355 -9.72,9.72c-0,5.365 4.355,9.72 9.72,9.72l63.84,0l-19.44,-19.44Z"/><path d="M196.584,102.144l-142.704,0c-5.365,0 -9.72,4.355 -9.72,9.72c-0,5.365 4.355,9.72 9.72,9.72l162.144,0l-19.44,-19.44Z"/><path d="M171.048,76.608l-73.248,0c-5.365,0 -9.72,4.355 -9.72,9.72c-0,5.365 4.355,9.72 9.72,9.72l92.688,0l-19.44,-19.44Z"/><path d="M190.488,51.072l-141.648,0c-5.365,0 -9.72,4.355 -9.72,9.72c-0,5.365 4.355,9.72 9.72,9.72l122.208,0l19.44,-19.44Z"/><path d="M216.024,25.536l-99.984,0c-5.365,0 -9.72,4.355 -9.72,9.72c-0,5.365 4.355,9.72 9.72,9.72l80.544,0l19.44,-19.44Z"/><path d="M241.56,0l-63.84,0c-5.365,0 -9.72,4.355 -9.72,9.72c-0,5.365 4.355,9.72 9.72,9.72l44.4,-0l19.44,-19.44Z"/><path d="M250.92,0l73.56,73.56l-73.56,73.56l-73.56,-73.56l73.56,-73.56Z"/></svg>