<?xml version="1.0" encoding="UTF-8" standalone="no"?><!DOCTYPE svg PUBLIC "-//W3C//DTD SVG 1.1//EN" "http://www.w3.org/Graphics/SVG/1.1/DTD/svg11.dtd"><svg width="100%" height="100%" viewBox="0 0 334 166" version="1.1" xmlns="http://www.w3.org/2000/svg" xmlns:xlink="http://www.w3.org/1999/xlink" xml:space="preserve" xmlns:serif="http://www.serif.com/" style="fill-rule:evenodd;clip-rule:evenodd;stroke-linejoin:round;stroke-miterlimit:2;"><path d="M254.64,18.96c-0,-5.365 -4.355,-9.72 -9.72,-9.72l-67.2,-0c-5.365,-0 -9.72,4.355 -9.72,9.72c-0,5.365 4.355,9.72 9.72,9.72l67.2,-0c5.365,-0 9.72,-4.355 9.72,-9.72Z"/><path d="M254.64,44.496c-0,-5.365 -4.355,-9.72 -9.72,-9.72l-128.88,-0c-5.365,-0 -9.72,4.355 -9.72,9.72c-0,5.365 4.355,9.72 9.72,9.72l128.88,-0c5.365,-0 9.72,-4.355 9.72,-9.72Z"/><path d="M254.64,70.032c-0,-5.365 -4.355,-9.72 -9.72,-9.72l-196.08,-0c-5.365,-0 -9.72,4.355 -9.72,9.72c-0,5.365 4.355,9.72 9.72,9.72l196.08,-0c5.365,-0 9.72,-4.355 9.72,-9.72Z"/><path d="M254.64,95.568c-0,-5.365 -4.355,-9.72 -9.72,-9.72l-147.12,-0c-5.365,-0 -9.72,4.355 -9.72,9.72c-0,5.365 4.355,9.72 9.72,9.72l147.12,-0c5.365,-0 9.72,-4.355 9.72,-9.72Z"/><path d="M70.08,95.568c-0,-5.365 -4.355,-9.72 -9.72,-9.72l-50.64,-0c-5.365,-0 -9.72,4.355 -9.72,9.72c0,5.365 4.355,9.72 9.72,9.72l50.64,-0c5.365,-0 9.72,-4.355 9.72,-9.72Z"/><path d="M254.64,121.104c-0,-5.365 -4.355,-9.72 -9.72,-9.72l-191.04,-0c-5.365,-0 -9.72,4.355 -9.72,9.72c-0,5.365 4.355,9.72 9.72,9.72l191.04,-0c5.365,-0 9.72,-4.355 9.72,-9.72Z"/><path d="M254.64,146.64c-0,-5.365 -4.355,-9.72 -9.72,-9.72l-67.2,-0c-5.365,-0 -9.72,4.355 -9.72,9.72c-0,5.365 4.355,9.72 9.72,9.72l67.2,-0c5.365,-0 9.72,-4.355 9.72,-9.72Z"/><path d="M250.8,0l82.8,82.8l-82.8,82.8l-82.8,-82.8l82.8,-82.8Z" style="fill:#fff;"/><path d="M250.92,9.24l73.56,73.56l-73.56,73.56l-73.56,-73.56l73.56,-73.56Z"/></svg>